<svg id="carbon:application-web" xmlns="http://www.w3.org/2000/svg" width="28" height="28" viewBox="0 0 28 28">
  <defs>
    <style>
      .cls-1 {
        fill: #ff4c06;
      }
    </style>
  </defs>
  <path id="Vector" class="cls-1" d="M0,0H4V4H0Z" transform="translate(24)"/>
  <path id="Vector-2" data-name="Vector" class="cls-1" d="M0,0H4V4H0Z" transform="translate(24 6)"/>
  <path id="Vector-3" data-name="Vector" class="cls-1" d="M0,0H4V4H0Z" transform="translate(18)"/>
  <path id="Vector-4" data-name="Vector" class="cls-1" d="M0,0H4V4H0Z" transform="translate(18 6)"/>
  <path id="Vector-5" data-name="Vector" class="cls-1" d="M26,12v6H2V2H14V0H2A2,2,0,0,0,0,2V18a2,2,0,0,0,2,2h8v4H6v2H22V24H18V20h8a2,2,0,0,0,2-2V12ZM16,24H12V20h4Z" transform="translate(0 2)"/>
</svg>
