<svg id="carbon:application-mobile" xmlns="http://www.w3.org/2000/svg" width="21" height="28" viewBox="0 0 21 28">
  <defs>
    <style>
      .cls-1 {
        fill: #ff4c06;
      }
    </style>
  </defs>
  <path id="Vector" class="cls-1" d="M0,0H4V4H0Z" transform="translate(17 5)"/>
  <path id="Vector-2" data-name="Vector" class="cls-1" d="M0,0H4V4H0Z" transform="translate(17 11)"/>
  <path id="Vector-3" data-name="Vector" class="cls-1" d="M0,0H4V4H0Z" transform="translate(11 5)"/>
  <path id="Vector-4" data-name="Vector" class="cls-1" d="M0,0H4V4H0Z" transform="translate(11 11)"/>
  <path id="Vector-5" data-name="Vector" class="cls-1" d="M3,1.5A1.5,1.5,0,1,1,1.5,0,1.5,1.5,0,0,1,3,1.5Z" transform="translate(7 21)"/>
  <path id="Vector-6" data-name="Vector" class="cls-1" d="M15,28H2a2,2,0,0,1-2-2V2A2,2,0,0,1,2,0H15V2H2V26H15V18h2v8a2,2,0,0,1-2,2Z"/>
</svg>
