<svg xmlns="http://www.w3.org/2000/svg" width="23.993" height="24" viewBox="0 0 23.993 24">
  <defs>
    <style>
      .cls-1 {
        fill: #ff4c06;
      }
    </style>
  </defs>
  <g id="fontisto:paper-plane" transform="translate(0.001 0.002)">
    <path id="Vector" class="cls-1" d="M23.616.163a.837.837,0,0,1,.36.862v0L20.551,21.58a.848.848,0,0,1-.424.6l0,0a.819.819,0,0,1-.406.107h-.01a.9.9,0,0,1-.326-.069l.006,0-7.054-2.88L8.344,23.719a.79.79,0,0,1-.6.281H7.689a.76.76,0,0,1-.287-.056l.005,0a.808.808,0,0,1-.4-.311l0,0a.856.856,0,0,1-.147-.482V17.095L.54,14.512a.787.787,0,0,1-.535-.736.78.78,0,0,1,.422-.788l0,0L22.706.136a.772.772,0,0,1,.912.027h0ZM19.038,20.228,22,2.519,2.8,13.589l4.5,1.834L18.851,6.87l-6.4,10.668Z" transform="translate(-0.001 -0.002)"/>
  </g>
</svg>
