<svg xmlns="http://www.w3.org/2000/svg" width="36" height="36" viewBox="0 0 36 36">
  <defs>
    <style>
      .cls-1, .cls-4 {
        fill: none;
      }

      .cls-1 {
        stroke: #032530;
      }

      .cls-2 {
        fill: #032530;
      }

      .cls-3 {
        stroke: none;
      }
    </style>
  </defs>
  <g id="Twitter_Icon" data-name="Twitter Icon" transform="translate(-1218 -5424)">
    <g id="Rectangle" class="cls-1" transform="translate(1218 5424)">
      <rect class="cls-3" width="36" height="36" rx="18"/>
      <rect class="cls-4" x="0.5" y="0.5" width="35" height="35" rx="17.5"/>
    </g>
    <path id="Twitter" class="cls-2" d="M5.827-7.453l.026.439-.434-.054A6.99,6.99,0,0,1,1.292-9.147L.72-9.729.572-9.3A2.632,2.632,0,0,0,1.11-6.646c.347.376.269.43-.329.206a1,1,0,0,0-.408-.1,3.273,3.273,0,0,0,.312,1.2A2.829,2.829,0,0,0,1.873-4.19l.425.206-.5.009c-.486,0-.5.009-.451.2a2.644,2.644,0,0,0,1.621,1.47L3.5-2.12l-.468.287A4.8,4.8,0,0,1,.711-1.17,2.511,2.511,0,0,0,0-1.1a6.529,6.529,0,0,0,1.673.789A7.173,7.173,0,0,0,7.361-.973,7.748,7.748,0,0,0,10.249-4.45a9.433,9.433,0,0,0,.59-2.689c0-.412.026-.466.512-.959a5.81,5.81,0,0,0,.607-.69c.087-.17.078-.17-.364-.018-.737.269-.841.233-.477-.17a2.619,2.619,0,0,0,.59-.959c0-.027-.13.018-.277.1a4.771,4.771,0,0,1-.763.3L10.2-9.38l-.425-.3a3.5,3.5,0,0,0-.737-.394,2.9,2.9,0,0,0-1.517.036A2.567,2.567,0,0,0,5.827-7.453Z" transform="translate(1230 5447.076)"/>
  </g>
</svg>
